PathFileType	4	(X/Y/Z)	/Users/itak/Documents/Research/Walk-IL/dataset/trc/00214_00009.trc
DataRate	CameraRate	NumFrames	NumMarkers	Units	OrigDataRate	OrigDataStartFrame	OrigNumFrames
100.000000	100.000000	4	54	mm	100.000000	0	505
Frame#	Time	RPSI			LPSI			L3			STRN			T10			C7			CLAV			RBAK			LBAK			LSHO			LUPA			LAEL			LAOL			LWTS			LWPS			LFRA			LIFD			LHPS			LHTS			RSHO			RUPA			RAEL			RAOL			RWPS			RFRA			RIFD			RHPS			RBHD			LFHD			RFHD			LBHD			LHIP			RHIP			RASI			LASI			LKNE			LTHI			LANK			LTIP			LTOE			LMT1			LMT5			LHEE			RKNE			RTHI			RANK			RTIP			RTOE			RMT5			RHEE			RWTS			RHTS			RMT1			*53			
		X1	Y1	Z1	X2	Y2	Z2	X3	Y3	Z3	X4	Y4	Z4	X5	Y5	Z5	X6	Y6	Z6	X7	Y7	Z7	X8	Y8	Z8	X9	Y9	Z9	X10	Y10	Z10	X11	Y11	Z11	X12	Y12	Z12	X13	Y13	Z13	X14	Y14	Z14	X15	Y15	Z15	X16	Y16	Z16	X17	Y17	Z17	X18	Y18	Z18	X19	Y19	Z19	X20	Y20	Z20	X21	Y21	Z21	X22	Y22	Z22	X23	Y23	Z23	X24	Y24	Z24	X25	Y25	Z25	X26	Y26	Z26	X27	Y27	Z27	X28	Y28	Z28	X29	Y29	Z29	X30	Y30	Z30	X31	Y31	Z31	X32	Y32	Z32	X33	Y33	Z33	X34	Y34	Z34	X35	Y35	Z35	X36	Y36	Z36	X37	Y37	Z37	X38	Y38	Z38	X39	Y39	Z39	X40	Y40	Z40	X41	Y41	Z41	X42	Y42	Z42	X43	Y43	Z43	X44	Y44	Z44	X45	Y45	Z45	X46	Y46	Z46	X47	Y47	Z47	X48	Y48	Z48	X49	Y49	Z49	X50	Y50	Z50	X51	Y51	Z51	X52	Y52	Z52	X53	Y53	Z53	X54	Y54	Z54	

1	0	-1692.572143554688	1054.131225585938	-176.7151947021484	-1681.379028320312	1059.432861328125	-296.3302612304688	-1691.66162109375	1139.994873046875	-251.4565887451172	-1452.158447265625	1325.098388671875	-236.5048217773438	-1708.3916015625	1267.213134765625	-247.2809906005859	-1647.563598632812	1527.788208007812	-243.3615570068359	-1475.892700195312	1443.208374023438	-235.8365020751953	-1724.981323242188	1390.332763671875	-167.9682006835938	-1659.025024414062	1493.205444335938	-358.8011474609375	-1563.127807617188	1491.6376953125	-405.1804504394531	-1580.717407226562	1375.446533203125	-489.5875244140625	-1559.083862304688	1163.87841796875	-517.4893188476562	-1635.390258789062	1145.331420898438	-479.367919921875	-1463.856811523438	933.49560546875	-451.4593811035156	-1481.742065429688	915.5436401367188	-532.4044189453125	-1530.999633789062	1057.005737304688	-528.2750854492188	-1444.881225585938	735.6404418945312	-461.8718872070312	-1460.010864257812	827.8487548828125	-526.2681884765625	-1416.42626953125	836.8471069335938	-469.065185546875	-1587.28076171875	1486.049682617188	-71.88005065917969	-1603.437377929688	1423.160522460938	-1.543183445930481	-1612.359619140625	1138.37548828125	34.31569671630859	-1656.263916015625	1133.104614257812	-50.79644393920898	-1526.34619140625	907.9442138671875	43.09002304077148	-1583.773315429688	1069.38427734375	41.93339538574219	-1459.196899414062	727.6407470703125	-30.4560489654541	-1485.390869140625	800.5599975585938	38.33120346069336	-1604.568237304688	1637.726440429688	-157.4486694335938	-1475.788452148438	1757.661010742188	-304.0843505859375	-1442.330078125	1756.213012695312	-209.736572265625	-1610.921875	1662.429565429688	-296.7102355957031	-1569.465209960938	995.998779296875	-427.1185302734375	-1603.863891601562	1012.574279785156	-62.31228256225586	-1503.169677734375	1056.644165039062	-90.86759948730469	-1470.511352539062	1037.098510742188	-372.7712707519531	-1545.281127929688	509.4020690917969	-372.0319519042969	-1542.114990234375	653.2069702148438	-407.2467041015625	-1628.0673828125	41.08586883544922	-353.197265625	-1595.416625976562	287.1904296875	-374.7919616699219	-1415.934936523438	46.46805953979492	-292.489501953125	-1484.453002929688	38.54000473022461	-250.7877044677734	-1499.872680664062	42.36700439453125	-367.0482788085938	-1690.505737304688	46.55748748779297	-302.3243408203125	-1580.205322265625	517.8217163085938	-103.1388854980469	-1553.876708984375	786.7136840820312	-51.02219009399414	-1659.321166992188	39.86159896850586	-143.223876953125	-1577.918334960938	402.65185546875	-121.4747161865234	-1444.092651367188	47.1237907409668	-142.8050384521484	-1556.464111328125	40.40241622924805	-95.66047668457031	-1709.46923828125	39.47735595703125	-213.2109069824219	-1480.415283203125	923.1822509765625	-27.04323577880859	-1437.466552734375	803.0156860351562	-16.55795860290527	-1489.91650390625	44.38785171508789	-196.0601806640625	nan	nan	nan	
2	0.01	-1692.632202148438	1054.187255859375	-176.7451324462891	-1681.401977539062	1059.451293945312	-296.3354797363281	-1691.6806640625	1140.025756835938	-251.4618530273438	-1452.094360351562	1325.045043945312	-236.5022125244141	-1708.364624023438	1267.256225585938	-247.2781219482422	-1647.450927734375	1527.812255859375	-243.3784942626953	-1475.918212890625	1443.130981445312	-235.8418579101562	-1724.92919921875	1390.379516601562	-167.9371032714844	-1658.930297851562	1493.219970703125	-358.8348693847656	-1563.019165039062	1491.629150390625	-405.1858215332031	-1580.617431640625	1375.42529296875	-489.5846557617188	-1558.9580078125	1163.834716796875	-517.4163818359375	-1635.29638671875	1145.308959960938	-479.3466796875	-1463.59716796875	933.51318359375	-451.2359619140625	-1481.612548828125	915.5045166015625	-532.2189331054688	-1530.856201171875	1056.94482421875	-528.1576538085938	-1444.71337890625	735.7566528320312	-461.7048034667969	-1459.935913085938	827.8028564453125	-526.0601196289062	-1416.296997070312	836.93798828125	-468.9349365234375	-1587.185791015625	1486.031860351562	-71.86174011230469	-1603.369873046875	1423.148681640625	-1.522802948951721	-1612.37841796875	1138.368896484375	34.31037139892578	-1656.296752929688	1133.115966796875	-50.78535461425781	-1526.453247070312	907.8955688476562	43.06420135498047	-1583.796630859375	1069.364135742188	41.93009567260742	-1459.35009765625	727.6301879882812	-30.4849910736084	-1485.487548828125	800.5180053710938	38.29468536376953	-1604.504150390625	1637.770874023438	-157.4547576904297	-1475.634887695312	1757.64990234375	-304.0316467285156	-1442.157958984375	1756.173950195312	-209.6910705566406	-1610.811645507812	1662.455078125	-296.6913452148438	-1569.474975585938	996.0043334960938	-427.1178283691406	-1603.893432617188	1012.575500488281	-62.306884765625	-1503.19921875	1056.62451171875	-90.86973571777344	-1470.532592773438	1037.0810546875	-372.7623291015625	-1545.324462890625	509.4026489257812	-372.0342407226562	-1542.096801757812	653.1773681640625	-407.2333068847656	-1628.0654296875	41.07788467407227	-353.1960754394531	-1595.443481445312	287.1903076171875	-374.7942810058594	-1415.936401367188	46.46693420410156	-292.4902954101562	-1484.462280273438	38.55093765258789	-250.7941284179688	-1499.866088867188	42.37354278564453	-367.0457458496094	-1690.5107421875	46.55849075317383	-302.326416015625	-1580.246826171875	517.8121948242188	-103.1421585083008	-1553.9130859375	786.6749267578125	-51.07650756835938	-1659.316040039062	39.86259078979492	-143.2237548828125	-1577.945678710938	402.6573181152344	-121.4875259399414	-1444.096313476562	47.13164520263672	-142.7998809814453	-1556.46142578125	40.4013786315918	-95.66242980957031	-1709.46826171875	39.47892761230469	-213.2102966308594	-1480.57568359375	923.1041259765625	-27.02807807922363	-1437.651977539062	802.933349609375	-16.60017204284668	-1489.913940429688	44.38836669921875	-196.0592803955078	nan	nan	nan	
3	0.02	-1692.681030273438	1054.234741210938	-176.7628479003906	-1681.427978515625	1059.474731445312	-296.3416748046875	-1691.698852539062	1140.064086914062	-251.4676666259766	-1452.019287109375	1324.982055664062	-236.5011444091797	-1708.335815429688	1267.307373046875	-247.2796936035156	-1647.310180664062	1527.84228515625	-243.3993072509766	-1475.922485351562	1443.040405273438	-235.8433990478516	-1724.868896484375	1390.432250976562	-167.9021148681641	-1658.808959960938	1493.24072265625	-358.873779296875	-1562.878784179688	1491.62060546875	-405.1921997070312	-1580.485473632812	1375.39990234375	-489.5768737792969	-1558.799682617188	1163.781616210938	-517.321044921875	-1635.174682617188	1145.283203125	-479.3136291503906	-1463.324340820312	933.5236206054688	-450.9630126953125	-1481.4462890625	915.4534912109375	-531.9807739257812	-1530.681884765625	1056.8720703125	-528.0093383789062	-1444.46435546875	735.8872680664062	-461.4579162597656	-1459.8466796875	827.7471313476562	-525.7958374023438	-1416.096435546875	837.0401611328125	-468.7366333007812	-1587.068725585938	1486.009155273438	-71.8394775390625	-1603.286743164062	1423.134521484375	-1.497596144676208	-1612.401733398438	1138.357421875	34.30310440063477	-1656.334228515625	1133.128662109375	-50.7741813659668	-1526.591186523438	907.834228515625	43.03388595581055	-1583.828369140625	1069.3359375	41.92730712890625	-1459.547485351562	727.6069946289062	-30.51873779296875	-1485.613159179688	800.466796875	38.24878311157227	-1604.416381835938	1637.832397460938	-157.4590454101562	-1475.414184570312	1757.62744140625	-303.9598388671875	-1441.927734375	1756.119873046875	-209.6168975830078	-1610.647705078125	1662.486694335938	-296.66357421875	-1569.49267578125	996.0125732421875	-427.1219177246094	-1603.929565429688	1012.578491210938	-62.30175399780273	-1503.234008789062	1056.600830078125	-90.87018585205078	-1470.554077148438	1037.0595703125	-372.7514038085938	-1545.378295898438	509.4029846191406	-372.0379638671875	-1542.092041015625	653.1471557617188	-407.2226257324219	-1628.063110351562	41.06764602661133	-353.1951904296875	-1595.475830078125	287.1902770996094	-374.7981567382812	-1415.938232421875	46.4653205871582	-292.4916381835938	-1484.4716796875	38.56558990478516	-250.8020629882812	-1499.85888671875	42.38032913208008	-367.043701171875	-1690.518676757812	46.55514526367188	-302.3271789550781	-1580.299072265625	517.802978515625	-103.1461029052734	-1553.977172851562	786.6419677734375	-51.11763763427734	-1659.311401367188	39.86301422119141	-143.2246704101562	-1577.98046875	402.6669921875	-121.5027084350586	-1444.098999023438	47.14059448242188	-142.7939453125	-1556.458251953125	40.39979934692383	-95.66431427001953	-1709.467163085938	39.48014068603516	-213.2104034423828	-1480.760375976562	923.0053100585938	-27.01372528076172	-1437.908203125	802.8154296875	-16.64868927001953	-1489.912231445312	44.3900032043457	-196.057861328125	nan	nan	nan	
4	0.03	-1692.712036132812	1054.267944335938	-176.7645568847656	-1681.45458984375	1059.502563476562	-296.348876953125	-1691.713256835938	1140.1083984375	-251.4736175537109	-1451.93896484375	1324.913452148438	-236.5014190673828	-1708.308471679688	1267.363159179688	-247.2874755859375	-1647.148071289062	1527.877075195312	-243.4222869873047	-1475.89404296875	1442.942993164062	-235.8381195068359	-1724.803588867188	1390.486694335938	-167.8670501708984	-1658.664794921875	1493.268432617188	-358.9140014648438	-1562.7109375	1491.613647460938	-405.1986694335938	-1580.324340820312	1375.372436523438	-489.5622863769531	-1558.615478515625	1163.722778320312	-517.2056884765625	-1635.030151367188	1145.256225585938	-479.2673950195312	-1463.076171875	933.5217895507812	-450.6554870605469	-1481.249389648438	915.3919067382812	-531.6976928710938	-1530.488403320312	1056.79296875	-527.8361206054688	-1444.132690429688	736.0132446289062	-461.1252746582031	-1459.748901367188	827.6846313476562	-525.484619140625	-1415.820678710938	837.1361083984375	-468.4623413085938	-1586.935668945312	1485.982177734375	-71.81447601318359	-1603.192016601562	1423.11865234375	-1.468857526779175	-1612.429077148438	1138.34033203125	34.29385757446289	-1656.373779296875	1133.141723632812	-50.76518249511719	-1526.754638671875	907.7630615234375	43.00115585327148	-1583.8681640625	1069.299560546875	41.92550277709961	-1459.781860351562	727.5667724609375	-30.55595970153809	-1485.764892578125	800.4086303710938	38.19564819335938	-1604.305297851562	1637.910888671875	-157.4590759277344	-1475.122680664062	1757.590087890625	-303.8695983886719	-1441.641845703125	1756.050048828125	-209.5110015869141	-1610.426391601562	1662.523681640625	-296.6269226074219	-1569.521118164062	996.0234985351562	-427.13330078125	-1603.969482421875	1012.584167480469	-62.29799652099609	-1503.272216796875	1056.57421875	-90.86819458007812	-1470.57421875	1037.035400390625	-372.7395324707031	-1545.441162109375	509.4032897949219	-372.043701171875	-1542.10888671875	653.1212158203125	-407.217529296875	-1628.060791015625	41.05594253540039	-353.1952514648438	-1595.512573242188	287.1902465820312	-374.8040161132812	-1415.940185546875	46.46370697021484	-292.493408203125	-1484.479858398438	38.58197402954102	-250.8102722167969	-1499.852783203125	42.38543319702148	-367.042236328125	-1690.528076171875	46.54769897460938	-302.326904296875	-1580.3603515625	517.7952880859375	-103.1504669189453	-1554.073364257812	786.624267578125	-51.13162994384766	-1659.307739257812	39.86265182495117	-143.2264709472656	-1578.021362304688	402.6819152832031	-121.5195465087891	-1444.1005859375	47.14990615844727	-142.7877655029297	-1556.454711914062	40.39834213256836	-95.66554260253906	-1709.4658203125	39.48049926757812	-213.2117614746094	-1480.959350585938	922.8890991210938	-27.00105285644531	-1438.225463867188	802.6654663085938	-16.70090293884277	-1489.911743164062	44.3928108215332	-196.0559387207031	nan	nan	nan	
